<?xml version="1.0" encoding="us-ascii" standalone="no"?><svg xmlns="http://www.w3.org/2000/svg" xmlns:xlink="http://www.w3.org/1999/xlink" contentStyleType="text/css" height="1285px" preserveAspectRatio="none" style="width:988px;height:1285px;background:#FFFFFF;" version="1.1" viewBox="0 0 988 1285" width="988px" zoomAndPan="magnify"><defs/><g><!--cluster compilateur--><g id="cluster_compilateur"><path d="M308.5,6.602 L393.5,6.602 A3.75,3.75 0 0 1 396,9.102 L403,31.6699 L978.5,31.6699 A2.5,2.5 0 0 1 981,34.1699 L981,1247.102 A2.5,2.5 0 0 1 978.5,1249.602 L308.5,1249.602 A2.5,2.5 0 0 1 306,1247.102 L306,9.102 A2.5,2.5 0 0 1 308.5,6.602 " fill="none" style="stroke:#000000;stroke-width:1.5;"/><line style="stroke:#000000;stroke-width:1.5;" x1="306" x2="403" y1="31.6699" y2="31.6699"/><text fill="#000000" font-family="sans-serif" font-size="14" font-weight="bold" lengthAdjust="spacing" textLength="84" x="310" y="23.5679">compilateur</text></g><!--cluster analyseurs--><g id="cluster_analyseurs"><path d="M8.5,111.602 L83.5,111.602 A3.75,3.75 0 0 1 86,114.102 L93,136.6699 L277.5,136.6699 A2.5,2.5 0 0 1 280,139.1699 L280,1276.102 A2.5,2.5 0 0 1 277.5,1278.602 L8.5,1278.602 A2.5,2.5 0 0 1 6,1276.102 L6,114.102 A2.5,2.5 0 0 1 8.5,111.602 " fill="none" style="stroke:#000000;stroke-width:1.5;"/><line style="stroke:#000000;stroke-width:1.5;" x1="6" x2="93" y1="136.6699" y2="136.6699"/><text fill="#000000" font-family="sans-serif" font-size="14" font-weight="bold" lengthAdjust="spacing" textLength="74" x="10" y="128.5679">analyseurs</text></g><!--class TPileRep--><g id="elem_TPileRep"><rect codeLine="6" fill="#F1F1F1" height="143.3396" id="TPileRep" rx="2.5" ry="2.5" style="stroke:#181818;stroke-width:0.5;" width="162" x="793" y="601.102"/><ellipse cx="840.75" cy="617.102" fill="#ADD1B2" rx="11" ry="11" style="stroke:#181818;stroke-width:1.0;"/><path d="M843.7188,622.7426 Q843.1406,623.0395 842.5,623.1801 Q841.8594,623.3364 841.1563,623.3364 Q838.6563,623.3364 837.3281,621.6957 Q836.0156,620.0395 836.0156,616.9145 Q836.0156,613.7895 837.3281,612.1332 Q838.6563,610.477 841.1563,610.477 Q841.8594,610.477 842.5,610.6332 Q843.1563,610.7895 843.7188,611.0864 L843.7188,613.8051 Q843.0938,613.227 842.5,612.9614 Q841.9063,612.6801 841.2813,612.6801 Q839.9375,612.6801 839.25,613.7582 Q838.5625,614.8207 838.5625,616.9145 Q838.5625,619.0082 839.25,620.0864 Q839.9375,621.1489 841.2813,621.1489 Q841.9063,621.1489 842.5,620.8832 Q843.0938,620.602 843.7188,620.0239 L843.7188,622.7426 Z " fill="#000000"/><text fill="#000000" font-family="sans-serif" font-size="14" lengthAdjust="spacing" textLength="58" x="861.25" y="622.534">TPileRep</text><line style="stroke:#181818;stroke-width:0.5;" x1="794" x2="954" y1="633.102" y2="633.102"/><rect fill="none" height="6" style="stroke:#C82930;stroke-width:1.0;" width="6" x="801" y="645.1359"/><text fill="#000000" font-family="sans-serif" font-size="14" lengthAdjust="spacing" text-decoration="underline" textLength="113" x="813" y="652.0679">MAXPILEREP : int</text><line style="stroke:#181818;stroke-width:0.5;" x1="794" x2="954" y1="660.1699" y2="660.1699"/><ellipse cx="804" cy="675.2039" fill="#84BE84" rx="3" ry="3" style="stroke:#038048;stroke-width:1.0;"/><text fill="#000000" font-family="sans-serif" font-size="14" lengthAdjust="spacing" textLength="136" x="813" y="679.1358">TPileRep() : TPileRep</text><text fill="#000000" font-family="sans-serif" font-size="14" lengthAdjust="spacing" textLength="4" x="813" y="698.2038">&#160;</text><ellipse cx="804" cy="713.3397" fill="#84BE84" rx="3" ry="3" style="stroke:#038048;stroke-width:1.0;"/><text fill="#000000" font-family="sans-serif" font-size="14" lengthAdjust="spacing" textLength="97" x="813" y="717.2717">empiler(x : int)</text><ellipse cx="804" cy="732.4076" fill="#84BE84" rx="3" ry="3" style="stroke:#038048;stroke-width:1.0;"/><text fill="#000000" font-family="sans-serif" font-size="14" lengthAdjust="spacing" textLength="86" x="813" y="736.3396">depiler() : int</text></g><!--class EltTabSymb--><g id="elem_EltTabSymb"><rect codeLine="15" fill="#F1F1F1" height="181.4754" id="EltTabSymb" rx="2.5" ry="2.5" style="stroke:#181818;stroke-width:0.5;" width="498" x="322" y="1052.602"/><ellipse cx="527.25" cy="1068.602" fill="#ADD1B2" rx="11" ry="11" style="stroke:#181818;stroke-width:1.0;"/><path d="M530.2188,1074.2426 Q529.6406,1074.5395 529,1074.6801 Q528.3594,1074.8364 527.6563,1074.8364 Q525.1563,1074.8364 523.8281,1073.1957 Q522.5156,1071.5395 522.5156,1068.4145 Q522.5156,1065.2895 523.8281,1063.6332 Q525.1563,1061.977 527.6563,1061.977 Q528.3594,1061.977 529,1062.1332 Q529.6563,1062.2895 530.2188,1062.5864 L530.2188,1065.3051 Q529.5938,1064.727 529,1064.4614 Q528.4063,1064.1801 527.7813,1064.1801 Q526.4375,1064.1801 525.75,1065.2582 Q525.0625,1066.3207 525.0625,1068.4145 Q525.0625,1070.5082 525.75,1071.5864 Q526.4375,1072.6489 527.7813,1072.6489 Q528.4063,1072.6489 529,1072.3832 Q529.5938,1072.102 530.2188,1071.5239 L530.2188,1074.2426 Z " fill="#000000"/><text fill="#000000" font-family="sans-serif" font-size="14" lengthAdjust="spacing" textLength="79" x="547.75" y="1074.034">EltTabSymb</text><line style="stroke:#181818;stroke-width:0.5;" x1="323" x2="819" y1="1084.602" y2="1084.602"/><ellipse cx="333" cy="1099.6359" fill="none" rx="3" ry="3" style="stroke:#038048;stroke-width:1.0;"/><text fill="#000000" font-family="sans-serif" font-size="14" lengthAdjust="spacing" textLength="62" x="342" y="1103.5679">code : int</text><ellipse cx="333" cy="1118.7039" fill="none" rx="3" ry="3" style="stroke:#038048;stroke-width:1.0;"/><text fill="#000000" font-family="sans-serif" font-size="14" lengthAdjust="spacing" textLength="93" x="342" y="1122.6358">categorie : int</text><ellipse cx="333" cy="1137.7718" fill="none" rx="3" ry="3" style="stroke:#038048;stroke-width:1.0;"/><text fill="#000000" font-family="sans-serif" font-size="14" lengthAdjust="spacing" textLength="59" x="342" y="1141.7038">type : int</text><ellipse cx="333" cy="1156.8397" fill="none" rx="3" ry="3" style="stroke:#038048;stroke-width:1.0;"/><text fill="#000000" font-family="sans-serif" font-size="14" lengthAdjust="spacing" textLength="56" x="342" y="1160.7717">info : int</text><line style="stroke:#181818;stroke-width:0.5;" x1="323" x2="819" y1="1168.8736" y2="1168.8736"/><ellipse cx="333" cy="1183.9076" fill="#84BE84" rx="3" ry="3" style="stroke:#038048;stroke-width:1.0;"/><text fill="#000000" font-family="sans-serif" font-size="14" lengthAdjust="spacing" textLength="472" x="342" y="1187.8396">EltTabSymb(code : int, categorie : int, type : int, info : int) : EltTabSymb</text><text fill="#000000" font-family="sans-serif" font-size="14" lengthAdjust="spacing" textLength="4" x="342" y="1206.9075">&#160;</text><ellipse cx="333" cy="1222.0434" fill="#84BE84" rx="3" ry="3" style="stroke:#038048;stroke-width:1.0;"/><text fill="#000000" font-family="sans-serif" font-size="14" lengthAdjust="spacing" textLength="115" x="342" y="1225.9754">toString() : String</text></g><!--class ProgObjet--><g id="elem_ProgObjet"><rect codeLine="26" fill="#F1F1F1" height="276.815" id="ProgObjet" rx="2.5" ry="2.5" style="stroke:#181818;stroke-width:0.5;" width="279" x="685.5" y="44.602"/><ellipse cx="786.75" cy="60.602" fill="#ADD1B2" rx="11" ry="11" style="stroke:#181818;stroke-width:1.0;"/><path d="M789.7188,66.2426 Q789.1406,66.5395 788.5,66.6801 Q787.8594,66.8364 787.1563,66.8364 Q784.6563,66.8364 783.3281,65.1957 Q782.0156,63.5395 782.0156,60.4145 Q782.0156,57.2895 783.3281,55.6332 Q784.6563,53.977 787.1563,53.977 Q787.8594,53.977 788.5,54.1332 Q789.1563,54.2895 789.7188,54.5864 L789.7188,57.3051 Q789.0938,56.727 788.5,56.4614 Q787.9063,56.1801 787.2813,56.1801 Q785.9375,56.1801 785.25,57.2582 Q784.5625,58.3207 784.5625,60.4145 Q784.5625,62.5082 785.25,63.5864 Q785.9375,64.6489 787.2813,64.6489 Q787.9063,64.6489 788.5,64.3832 Q789.0938,64.102 789.7188,63.5239 L789.7188,66.2426 Z " fill="#000000"/><text fill="#000000" font-family="sans-serif" font-size="14" lengthAdjust="spacing" textLength="68" x="807.25" y="66.034">ProgObjet</text><line style="stroke:#181818;stroke-width:0.5;" x1="686.5" x2="963.5" y1="76.602" y2="76.602"/><rect fill="none" height="6" style="stroke:#C82930;stroke-width:1.0;" width="6" x="693.5" y="88.6359"/><text fill="#000000" font-family="sans-serif" font-size="14" lengthAdjust="spacing" text-decoration="underline" textLength="84" x="705.5" y="95.5679">MAXOBJ : int</text><rect fill="none" height="6" style="stroke:#C82930;stroke-width:1.0;" width="6" x="693.5" y="107.7039"/><text fill="#000000" font-family="sans-serif" font-size="14" lengthAdjust="spacing" textLength="111" x="705.5" y="114.6358">po : int[MAXOBJ]</text><rect fill="none" height="6" style="stroke:#C82930;stroke-width:1.0;" width="6" x="693.5" y="126.7718"/><text fill="#000000" font-family="sans-serif" font-size="14" lengthAdjust="spacing" textLength="51" x="705.5" y="133.7038">ipo : int</text><line style="stroke:#181818;stroke-width:0.5;" x1="686.5" x2="963.5" y1="141.8057" y2="141.8057"/><ellipse cx="696.5" cy="156.8397" fill="#84BE84" rx="3" ry="3" style="stroke:#038048;stroke-width:1.0;"/><text fill="#000000" font-family="sans-serif" font-size="14" lengthAdjust="spacing" textLength="156" x="705.5" y="160.7717">ProgObjet() : ProgObjet</text><text fill="#000000" font-family="sans-serif" font-size="14" lengthAdjust="spacing" textLength="4" x="705.5" y="179.8396">&#160;</text><ellipse cx="696.5" cy="194.9755" fill="#84BE84" rx="3" ry="3" style="stroke:#038048;stroke-width:1.0;"/><text fill="#000000" font-family="sans-serif" font-size="14" lengthAdjust="spacing" textLength="213" x="705.5" y="198.9075">produire(codeOuArg : int) : void</text><ellipse cx="696.5" cy="214.0434" fill="#84BE84" rx="3" ry="3" style="stroke:#038048;stroke-width:1.0;"/><text fill="#000000" font-family="sans-serif" font-size="14" lengthAdjust="spacing" textLength="253" x="705.5" y="217.9754">modifier(i : int, codeOuArg : int) : void</text><ellipse cx="696.5" cy="233.1114" fill="#84BE84" rx="3" ry="3" style="stroke:#038048;stroke-width:1.0;"/><text fill="#000000" font-family="sans-serif" font-size="14" lengthAdjust="spacing" textLength="82" x="705.5" y="237.0433">getIpo() : int</text><ellipse cx="696.5" cy="252.1793" fill="#84BE84" rx="3" ry="3" style="stroke:#038048;stroke-width:1.0;"/><text fill="#000000" font-family="sans-serif" font-size="14" lengthAdjust="spacing" textLength="111" x="705.5" y="256.1113">getElt(i : int) : int</text><text fill="#000000" font-family="sans-serif" font-size="14" lengthAdjust="spacing" textLength="4" x="705.5" y="275.1792">&#160;</text><ellipse cx="696.5" cy="290.3151" fill="#84BE84" rx="3" ry="3" style="stroke:#038048;stroke-width:1.0;"/><text fill="#000000" font-family="sans-serif" font-size="14" lengthAdjust="spacing" textLength="108" x="705.5" y="294.2471">constObj() : void</text><ellipse cx="696.5" cy="309.383" fill="#84BE84" rx="3" ry="3" style="stroke:#038048;stroke-width:1.0;"/><text fill="#000000" font-family="sans-serif" font-size="14" lengthAdjust="spacing" textLength="111" x="705.5" y="313.315">constGen() : void</text></g><!--class Compilateur--><g id="elem_Compilateur"><rect codeLine="47" fill="#F1F1F1" height="86.1358" id="Compilateur" rx="2.5" ry="2.5" style="stroke:#181818;stroke-width:0.5;" width="329" x="321.5" y="140.102"/><ellipse cx="440.25" cy="156.102" fill="#ADD1B2" rx="11" ry="11" style="stroke:#181818;stroke-width:1.0;"/><path d="M443.2188,161.7426 Q442.6406,162.0395 442,162.1801 Q441.3594,162.3364 440.6563,162.3364 Q438.1563,162.3364 436.8281,160.6957 Q435.5156,159.0395 435.5156,155.9145 Q435.5156,152.7895 436.8281,151.1332 Q438.1563,149.477 440.6563,149.477 Q441.3594,149.477 442,149.6332 Q442.6563,149.7895 443.2188,150.0864 L443.2188,152.8051 Q442.5938,152.227 442,151.9614 Q441.4063,151.6801 440.7813,151.6801 Q439.4375,151.6801 438.75,152.7582 Q438.0625,153.8207 438.0625,155.9145 Q438.0625,158.0082 438.75,159.0864 Q439.4375,160.1489 440.7813,160.1489 Q441.4063,160.1489 442,159.8832 Q442.5938,159.602 443.2188,159.0239 L443.2188,161.7426 Z " fill="#000000"/><text fill="#000000" font-family="sans-serif" font-size="14" lengthAdjust="spacing" textLength="83" x="460.75" y="161.534">Compilateur</text><line style="stroke:#181818;stroke-width:0.5;" x1="322.5" x2="649.5" y1="172.102" y2="172.102"/><line style="stroke:#181818;stroke-width:0.5;" x1="322.5" x2="649.5" y1="180.102" y2="180.102"/><rect fill="#F24D5C" height="6" style="stroke:#C82930;stroke-width:1.0;" width="6" x="329.5" y="192.1359"/><text fill="#000000" font-family="sans-serif" font-size="14" lengthAdjust="spacing" text-decoration="underline" textLength="303" x="341.5" y="199.0679">uneCompilation(nomDuSource : String) : void</text><ellipse cx="332.5" cy="214.2039" fill="#84BE84" rx="3" ry="3" style="stroke:#038048;stroke-width:1.0;"/><text fill="#000000" font-family="sans-serif" font-size="14" lengthAdjust="spacing" text-decoration="underline" textLength="175" x="341.5" y="218.1358">main(args : String[]) : void</text></g><!--class PtGen--><g id="elem_PtGen"><rect codeLine="52" fill="#F1F1F1" height="543.7658" id="PtGen" rx="2.5" ry="2.5" style="stroke:#181818;stroke-width:0.5;" width="381" x="331.5" y="400.602"/><ellipse cx="497.75" cy="416.602" fill="#ADD1B2" rx="11" ry="11" style="stroke:#181818;stroke-width:1.0;"/><path d="M500.7188,422.2426 Q500.1406,422.5395 499.5,422.6801 Q498.8594,422.8364 498.1563,422.8364 Q495.6563,422.8364 494.3281,421.1957 Q493.0156,419.5395 493.0156,416.4145 Q493.0156,413.2895 494.3281,411.6332 Q495.6563,409.977 498.1563,409.977 Q498.8594,409.977 499.5,410.1332 Q500.1563,410.2895 500.7188,410.5864 L500.7188,413.3051 Q500.0938,412.727 499.5,412.4614 Q498.9063,412.1801 498.2813,412.1801 Q496.9375,412.1801 496.25,413.2582 Q495.5625,414.3207 495.5625,416.4145 Q495.5625,418.5082 496.25,419.5864 Q496.9375,420.6489 498.2813,420.6489 Q498.9063,420.6489 499.5,420.3832 Q500.0938,420.102 500.7188,419.5239 L500.7188,422.2426 Z " fill="#000000"/><text fill="#000000" font-family="sans-serif" font-size="14" lengthAdjust="spacing" textLength="40" x="518.25" y="422.034">PtGen</text><line style="stroke:#181818;stroke-width:0.5;" x1="332.5" x2="711.5" y1="432.602" y2="432.602"/><ellipse cx="342.5" cy="447.6359" fill="none" rx="3" ry="3" style="stroke:#038048;stroke-width:1.0;"/><text fill="#000000" font-family="sans-serif" font-size="14" lengthAdjust="spacing" text-decoration="underline" textLength="106" x="351.5" y="451.5679">trinome : String</text><text fill="#000000" font-family="sans-serif" font-size="14" lengthAdjust="spacing" textLength="4" x="351.5" y="470.6358">&#160;</text><rect fill="none" height="6" style="stroke:#C82930;stroke-width:1.0;" width="6" x="339.5" y="482.7718"/><text fill="#000000" font-family="sans-serif" font-size="14" lengthAdjust="spacing" text-decoration="underline" textLength="98" x="351.5" y="489.7038">MAXSYMB : int</text><rect fill="none" height="6" style="stroke:#C82930;stroke-width:1.0;" width="6" x="339.5" y="501.8397"/><text fill="#000000" font-family="sans-serif" font-size="14" lengthAdjust="spacing" text-decoration="underline" textLength="228" x="351.5" y="508.7717">tabSymb : EltTabSymb[MAXSYMB]</text><rect fill="none" height="6" style="stroke:#C82930;stroke-width:1.0;" width="6" x="339.5" y="520.9076"/><text fill="#000000" font-family="sans-serif" font-size="14" lengthAdjust="spacing" text-decoration="underline" textLength="63" x="351.5" y="527.8396">it, bc : int</text><text fill="#000000" font-family="sans-serif" font-size="14" lengthAdjust="spacing" textLength="4" x="351.5" y="546.9075">&#160;</text><rect fill="none" height="6" style="stroke:#C82930;stroke-width:1.0;" width="6" x="339.5" y="559.0434"/><text fill="#000000" font-family="sans-serif" font-size="14" lengthAdjust="spacing" text-decoration="underline" textLength="97" x="351.5" y="565.9754">RESERVER : int</text><rect fill="none" height="6" style="stroke:#C82930;stroke-width:1.0;" width="6" x="339.5" y="578.1114"/><text fill="#000000" font-family="sans-serif" font-size="14" lengthAdjust="spacing" text-decoration="underline" textLength="88" x="351.5" y="585.0433">EMPILER : int</text><rect fill="none" height="6" style="stroke:#C82930;stroke-width:1.0;" width="6" x="339.5" y="597.1793"/><text fill="#000000" font-family="sans-serif" font-size="14" lengthAdjust="spacing" textLength="12" x="351.5" y="604.1113">...</text><rect fill="none" height="6" style="stroke:#C82930;stroke-width:1.0;" width="6" x="339.5" y="616.2472"/><text fill="#000000" font-family="sans-serif" font-size="14" lengthAdjust="spacing" text-decoration="underline" textLength="85" x="351.5" y="623.1792">RETOUR : int</text><text fill="#000000" font-family="sans-serif" font-size="14" lengthAdjust="spacing" textLength="4" x="351.5" y="642.2471">&#160;</text><rect fill="none" height="6" style="stroke:#C82930;stroke-width:1.0;" width="6" x="339.5" y="654.383"/><text fill="#000000" font-family="sans-serif" font-size="14" lengthAdjust="spacing" text-decoration="underline" textLength="97" x="351.5" y="661.315">po : ProgObjet</text><text fill="#000000" font-family="sans-serif" font-size="14" lengthAdjust="spacing" textLength="4" x="351.5" y="680.3829">&#160;</text><rect fill="none" height="6" style="stroke:#C82930;stroke-width:1.0;" width="6" x="339.5" y="692.5189"/><text fill="#000000" font-family="sans-serif" font-size="14" lengthAdjust="spacing" text-decoration="underline" textLength="67" x="351.5" y="699.4508">tCour : int</text><rect fill="none" height="6" style="stroke:#C82930;stroke-width:1.0;" width="6" x="339.5" y="711.5868"/><text fill="#000000" font-family="sans-serif" font-size="14" lengthAdjust="spacing" text-decoration="underline" textLength="69" x="351.5" y="718.5188">vCour : int</text><text fill="#000000" font-family="sans-serif" font-size="14" lengthAdjust="spacing" textLength="4" x="351.5" y="737.5867">&#160;</text><rect fill="none" height="6" style="stroke:#C82930;stroke-width:1.0;" width="6" x="339.5" y="749.7226"/><text fill="#000000" font-family="sans-serif" font-size="14" lengthAdjust="spacing" text-decoration="underline" textLength="121" x="351.5" y="756.6546">pileRep : TPileRep</text><line style="stroke:#181818;stroke-width:0.5;" x1="332.5" x2="711.5" y1="764.7566" y2="764.7566"/><rect fill="#F24D5C" height="6" style="stroke:#C82930;stroke-width:1.0;" width="6" x="339.5" y="776.7905"/><text fill="#000000" font-family="sans-serif" font-size="14" lengthAdjust="spacing" text-decoration="underline" textLength="215" x="351.5" y="783.7225">presentIdent(borneInf : int) : int</text><rect fill="#F24D5C" height="6" style="stroke:#C82930;stroke-width:1.0;" width="6" x="339.5" y="795.8584"/><text fill="#000000" font-family="sans-serif" font-size="14" lengthAdjust="spacing" text-decoration="underline" textLength="355" x="351.5" y="802.7904">placeIdent(code: int, cat: int, type: int, info: int) : void</text><rect fill="#F24D5C" height="6" style="stroke:#C82930;stroke-width:1.0;" width="6" x="339.5" y="814.9264"/><text fill="#000000" font-family="sans-serif" font-size="14" lengthAdjust="spacing" text-decoration="underline" textLength="125" x="351.5" y="821.8583">afftabSymb() : void</text><text fill="#000000" font-family="sans-serif" font-size="14" lengthAdjust="spacing" textLength="4" x="351.5" y="840.9263">&#160;</text><rect fill="#F24D5C" height="6" style="stroke:#C82930;stroke-width:1.0;" width="6" x="339.5" y="853.0622"/><text fill="#000000" font-family="sans-serif" font-size="14" lengthAdjust="spacing" text-decoration="underline" textLength="100" x="351.5" y="859.9942">verifEnt() : void</text><rect fill="#F24D5C" height="6" style="stroke:#C82930;stroke-width:1.0;" width="6" x="339.5" y="872.1301"/><text fill="#000000" font-family="sans-serif" font-size="14" lengthAdjust="spacing" text-decoration="underline" textLength="107" x="351.5" y="879.0621">verifBool() : void</text><text fill="#000000" font-family="sans-serif" font-size="14" lengthAdjust="spacing" textLength="4" x="351.5" y="898.13">&#160;</text><rect fill="#F24D5C" height="6" style="stroke:#C82930;stroke-width:1.0;" width="6" x="339.5" y="910.2659"/><text fill="#000000" font-family="sans-serif" font-size="14" lengthAdjust="spacing" text-decoration="underline" textLength="138" x="351.5" y="917.1979">initialisations() : void</text><rect fill="#F24D5C" height="6" style="stroke:#C82930;stroke-width:1.0;" width="6" x="339.5" y="929.3339"/><text fill="#000000" font-family="sans-serif" font-size="14" lengthAdjust="spacing" text-decoration="underline" textLength="146" x="351.5" y="936.2658">pt(numGen: int) : void</text></g><!--class projetLexer--><g id="elem_projetLexer"><rect codeLine="89" fill="#F1F1F1" height="48" id="projetLexer" rx="2.5" ry="2.5" style="stroke:#181818;stroke-width:0.5;" width="108" x="88" y="648.602"/><ellipse cx="103" cy="664.602" fill="#ADD1B2" rx="11" ry="11" style="stroke:#181818;stroke-width:1.0;"/><path d="M105.9688,670.2426 Q105.3906,670.5395 104.75,670.6801 Q104.1094,670.8364 103.4063,670.8364 Q100.9063,670.8364 99.5781,669.1957 Q98.2656,667.5395 98.2656,664.4145 Q98.2656,661.2895 99.5781,659.6332 Q100.9063,657.977 103.4063,657.977 Q104.1094,657.977 104.75,658.1332 Q105.4063,658.2895 105.9688,658.5864 L105.9688,661.3051 Q105.3438,660.727 104.75,660.4614 Q104.1563,660.1801 103.5313,660.1801 Q102.1875,660.1801 101.5,661.2582 Q100.8125,662.3207 100.8125,664.4145 Q100.8125,666.5082 101.5,667.5864 Q102.1875,668.6489 103.5313,668.6489 Q104.1563,668.6489 104.75,668.3832 Q105.3438,668.102 105.9688,667.5239 L105.9688,670.2426 Z " fill="#000000"/><text fill="#000000" font-family="sans-serif" font-size="14" lengthAdjust="spacing" textLength="76" x="117" y="670.034">projetLexer</text><line style="stroke:#181818;stroke-width:0.5;" x1="89" x2="195" y1="680.602" y2="680.602"/><line style="stroke:#181818;stroke-width:0.5;" x1="89" x2="195" y1="688.602" y2="688.602"/></g><!--class projetParser--><g id="elem_projetParser"><rect codeLine="93" fill="#F1F1F1" height="67.0679" id="projetParser" rx="2.5" ry="2.5" style="stroke:#181818;stroke-width:0.5;" width="115" x="83.5" y="149.602"/><ellipse cx="98.5" cy="165.602" fill="#ADD1B2" rx="11" ry="11" style="stroke:#181818;stroke-width:1.0;"/><path d="M101.4688,171.2426 Q100.8906,171.5395 100.25,171.6801 Q99.6094,171.8364 98.9063,171.8364 Q96.4063,171.8364 95.0781,170.1957 Q93.7656,168.5395 93.7656,165.4145 Q93.7656,162.2895 95.0781,160.6332 Q96.4063,158.977 98.9063,158.977 Q99.6094,158.977 100.25,159.1332 Q100.9063,159.2895 101.4688,159.5864 L101.4688,162.3051 Q100.8438,161.727 100.25,161.4614 Q99.6563,161.1801 99.0313,161.1801 Q97.6875,161.1801 97,162.2582 Q96.3125,163.3207 96.3125,165.4145 Q96.3125,167.5082 97,168.5864 Q97.6875,169.6489 99.0313,169.6489 Q99.6563,169.6489 100.25,169.3832 Q100.8438,169.102 101.4688,168.5239 L101.4688,171.2426 Z " fill="#000000"/><text fill="#000000" font-family="sans-serif" font-size="14" lengthAdjust="spacing" textLength="83" x="112.5" y="171.034">projetParser</text><line style="stroke:#181818;stroke-width:0.5;" x1="84.5" x2="197.5" y1="181.602" y2="181.602"/><line style="stroke:#181818;stroke-width:0.5;" x1="84.5" x2="197.5" y1="189.602" y2="189.602"/><ellipse cx="94.5" cy="204.6359" fill="#84BE84" rx="3" ry="3" style="stroke:#038048;stroke-width:1.0;"/><text fill="#000000" font-family="sans-serif" font-size="14" lengthAdjust="spacing" textLength="83" x="103.5" y="208.5679">unite() : void</text></g><!--class UtilLex--><g id="elem_UtilLex"><rect codeLine="97" fill="#F1F1F1" height="238.6792" id="UtilLex" rx="2.5" ry="2.5" style="stroke:#181818;stroke-width:0.5;" width="242" x="22" y="1023.602"/><ellipse cx="116.25" cy="1039.602" fill="#ADD1B2" rx="11" ry="11" style="stroke:#181818;stroke-width:1.0;"/><path d="M119.2188,1045.2426 Q118.6406,1045.5395 118,1045.6801 Q117.3594,1045.8364 116.6563,1045.8364 Q114.1563,1045.8364 112.8281,1044.1957 Q111.5156,1042.5395 111.5156,1039.4145 Q111.5156,1036.2895 112.8281,1034.6332 Q114.1563,1032.977 116.6563,1032.977 Q117.3594,1032.977 118,1033.1332 Q118.6563,1033.2895 119.2188,1033.5864 L119.2188,1036.3051 Q118.5938,1035.727 118,1035.4614 Q117.4063,1035.1801 116.7813,1035.1801 Q115.4375,1035.1801 114.75,1036.2582 Q114.0625,1037.3207 114.0625,1039.4145 Q114.0625,1041.5082 114.75,1042.5864 Q115.4375,1043.6489 116.7813,1043.6489 Q117.4063,1043.6489 118,1043.3832 Q118.5938,1043.102 119.2188,1042.5239 L119.2188,1045.2426 Z " fill="#000000"/><text fill="#000000" font-family="sans-serif" font-size="14" lengthAdjust="spacing" textLength="45" x="136.75" y="1045.034">UtilLex</text><line style="stroke:#181818;stroke-width:0.5;" x1="23" x2="263" y1="1055.602" y2="1055.602"/><ellipse cx="33" cy="1070.6359" fill="none" rx="3" ry="3" style="stroke:#038048;stroke-width:1.0;"/><text fill="#000000" font-family="sans-serif" font-size="14" lengthAdjust="spacing" text-decoration="underline" textLength="129" x="42" y="1074.5679">nomSource : String</text><ellipse cx="33" cy="1089.7039" fill="none" rx="3" ry="3" style="stroke:#038048;stroke-width:1.0;"/><text fill="#000000" font-family="sans-serif" font-size="14" lengthAdjust="spacing" text-decoration="underline" textLength="129" x="42" y="1093.6358">numIdCourant : int</text><ellipse cx="33" cy="1108.7718" fill="none" rx="3" ry="3" style="stroke:#038048;stroke-width:1.0;"/><text fill="#000000" font-family="sans-serif" font-size="14" lengthAdjust="spacing" text-decoration="underline" textLength="71" x="42" y="1112.7038">valEnt : int</text><rect fill="none" height="6" style="stroke:#C82930;stroke-width:1.0;" width="6" x="30" y="1124.8397"/><text fill="#000000" font-family="sans-serif" font-size="14" lengthAdjust="spacing" text-decoration="underline" textLength="121" x="42" y="1131.7717">tabIdent : String[]</text><line style="stroke:#181818;stroke-width:0.5;" x1="23" x2="263" y1="1139.8736" y2="1139.8736"/><ellipse cx="33" cy="1154.9076" fill="#84BE84" rx="3" ry="3" style="stroke:#038048;stroke-width:1.0;"/><text fill="#000000" font-family="sans-serif" font-size="14" lengthAdjust="spacing" textLength="81" x="42" y="1158.8396">arret() : void</text><ellipse cx="33" cy="1173.9755" fill="#84BE84" rx="3" ry="3" style="stroke:#038048;stroke-width:1.0;"/><text fill="#000000" font-family="sans-serif" font-size="14" lengthAdjust="spacing" textLength="216" x="42" y="1177.9075">messErr(message : String) : void</text><text fill="#000000" font-family="sans-serif" font-size="14" lengthAdjust="spacing" textLength="4" x="42" y="1196.9754">&#160;</text><ellipse cx="33" cy="1212.1114" fill="#84BE84" rx="3" ry="3" style="stroke:#038048;stroke-width:1.0;"/><text fill="#000000" font-family="sans-serif" font-size="14" lengthAdjust="spacing" text-decoration="underline" textLength="131" x="42" y="1216.0433">initialisation() : void</text><ellipse cx="33" cy="1231.1793" fill="#84BE84" rx="3" ry="3" style="stroke:#038048;stroke-width:1.0;"/><text fill="#000000" font-family="sans-serif" font-size="14" lengthAdjust="spacing" text-decoration="underline" textLength="176" x="42" y="1235.1113">chaineIdent(i : int) : String</text><ellipse cx="33" cy="1250.2472" fill="#84BE84" rx="3" ry="3" style="stroke:#038048;stroke-width:1.0;"/><text fill="#000000" font-family="sans-serif" font-size="14" lengthAdjust="spacing" text-decoration="underline" textLength="170" x="42" y="1254.1792">traiterId(id : String) : void</text></g><!--link Compilateur to projetParser--><g id="link_Compilateur_projetParser"><path codeLine="112" d="M321.44,208.242 C286.54,210.292 249.98,209.982 216,205.102 C210.36,204.292 210.3967,204.4997 204.6267,203.1697 " fill="none" id="Compilateur-to-projetParser" style="stroke:#181818;stroke-width:1.0;stroke-dasharray:7.0,7.0;"/><polygon fill="#181818" points="198.78,201.822,206.6516,207.7413,203.6522,202.945,208.4485,199.9457,198.78,201.822" style="stroke:#181818;stroke-width:1.0;"/><text fill="#000000" font-family="sans-serif" font-size="13" lengthAdjust="spacing" textLength="86" x="217" y="200.999">cr&#233;e et appelle</text></g><!--link projetLexer to UtilLex--><g id="link_projetLexer_UtilLex"><path codeLine="114" d="M142.05,696.832 C142.17,755.452 142.497,906.602 142.737,1017.532 " fill="none" id="projetLexer-to-UtilLex" style="stroke:#181818;stroke-width:1.0;stroke-dasharray:7.0,7.0;"/><polygon fill="#181818" points="142.75,1023.532,146.7305,1014.5233,142.7392,1018.532,138.7305,1014.5407,142.75,1023.532" style="stroke:#181818;stroke-width:1.0;"/><text fill="#000000" font-family="sans-serif" font-size="13" lengthAdjust="spacing" textLength="43" x="143" y="989.499">appelle</text></g><!--link projetParser to projetLexer--><g id="link_projetParser_projetLexer"><path codeLine="115" d="M141.07,216.842 C141.26,309.072 141.7779,563.412 141.9379,642.522 " fill="none" id="projetParser-to-projetLexer" style="stroke:#181818;stroke-width:1.0;"/><polygon fill="#181818" points="141.95,648.522,145.9318,639.5139,141.9399,643.522,137.9318,639.5301,141.95,648.522" style="stroke:#181818;stroke-width:1.0;"/><text fill="#000000" font-family="sans-serif" font-size="13" lengthAdjust="spacing" textLength="35" x="142" y="366.499">utilise</text></g><!--link projetParser to PtGen--><g id="link_projetParser_PtGen"><path codeLine="116" d="M166.59,216.842 C201.25,261.192 262.605,339.7047 327.675,422.9547 " fill="none" id="projetParser-to-PtGen" style="stroke:#181818;stroke-width:1.0;stroke-dasharray:7.0,7.0;"/><polygon fill="#181818" points="331.37,427.682,328.9791,418.1277,328.2909,423.7426,322.676,423.0543,331.37,427.682" style="stroke:#181818;stroke-width:1.0;"/><text fill="#000000" font-family="sans-serif" font-size="13" lengthAdjust="spacing" textLength="43" x="287" y="366.499">appelle</text></g><!--link PtGen to UtilLex--><g id="link_PtGen_UtilLex"><path codeLine="118" d="M331.39,909.222 C299.32,948.872 271.0533,983.807 242.7433,1018.807 " fill="none" id="PtGen-to-UtilLex" style="stroke:#181818;stroke-width:1.0;stroke-dasharray:7.0,7.0;"/><polygon fill="#181818" points="238.97,1023.472,247.74,1018.99,242.1144,1019.5845,241.52,1013.959,238.97,1023.472" style="stroke:#181818;stroke-width:1.0;"/><text fill="#000000" font-family="sans-serif" font-size="13" lengthAdjust="spacing" textLength="43" x="277" y="989.499">appelle</text></g><!--reverse link ProgObjet to PtGen--><g id="link_ProgObjet_PtGen"><path codeLine="120" d="M736.223,326.938 C720.823,351.718 707.46,373.212 690.65,400.262 " fill="none" id="ProgObjet-backto-PtGen" style="stroke:#181818;stroke-width:1.0;"/><polygon fill="#181818" points="739.39,321.842,731.2421,327.3747,736.7508,326.0887,738.0368,331.5974,739.39,321.842" style="stroke:#181818;stroke-width:1.0;"/><text fill="#000000" font-family="sans-serif" font-size="13" lengthAdjust="spacing" textLength="16" x="719" y="366.499">po</text></g><!--link PtGen to TPileRep--><g id="link_PtGen_TPileRep"><path codeLine="121" d="M712.68,672.602 C740.83,672.602 762.48,672.602 786.72,672.602 " fill="none" id="PtGen-to-TPileRep" style="stroke:#181818;stroke-width:1.0;"/><polygon fill="#181818" points="792.72,672.602,783.72,668.602,787.72,672.602,783.72,676.602,792.72,672.602" style="stroke:#181818;stroke-width:1.0;"/><text fill="#000000" font-family="sans-serif" font-size="13" lengthAdjust="spacing" textLength="44" x="730.75" y="665.499">pileRep</text></g><!--link PtGen to EltTabSymb--><g id="link_PtGen_EltTabSymb"><path codeLine="122" d="M550.36,944.772 C554.4,983.422 557.6756,1014.7346 560.9756,1046.2746 " fill="none" id="PtGen-to-EltTabSymb" style="stroke:#181818;stroke-width:1.0;"/><polygon fill="#181818" points="561.6,1052.242,564.6417,1042.8746,561.0797,1047.2691,556.6852,1043.7071,561.6,1052.242" style="stroke:#181818;stroke-width:1.0;"/><text fill="#000000" font-family="sans-serif" font-size="13" lengthAdjust="spacing" textLength="54" x="556" y="989.499">tabSymb</text></g><!--SRC=[XLRDRkCu3BxdAGZi8GwQ1kYU5ZaiC6sD8eCM3PAss47HWs8phcPioP3aR8f1tsMllSyRvCMMygySAvqWo8z9VfH8VfyqXgKi5EJgyB7Zkc0frwWWHOWvInJBCfn2ONZzU8nxWq9pAU1f3LSoHbYcJ9Z7krk0tP-pYxzc5wDn1PaSFiJXGr5O8M3BerTEFzTFDrE8KXv1h2GteCbHo0m8g7QPGbvm3U4-byh0TRKAJQ2thGlCz2u1rAR9SVY0mtyG7NuP-XKNhP-cTKG8ixp8qb7EeXyiGOXablEK6QJKFqT0h_83Q5bCQtXOyXHNcDSs-ph_gGqpF7g7ko__B1UtuIfSmXouCAFMvwmD32PaQ_wu3cZpeWhsLUp4CSLOcIOrh7twNiLMgmfJyy0swxTiuwphZFP2XIj3m7rAcqkauXwJUSizJxdOok66kfn1bsTwZ3vrCASEajrAX-3Y6hasYekat6trSxZXfPB9_UOx6hSFu3RY_lAhKwtAdjV9dolxYsFYZQrzDZw7tODYGjSnB-uYs_pbAjj_hakkP5nmXMLrxeilAkbslfCyTbmp6VCjJMJ0soh-DYP1iyXbRoHQ0nMsWPeC6nT9eGqjD_2WbhOR54FRs35kQHe5ox3fpsJakd71JLKvByeE8qkkoc7lsL-lqLS3ElOfLmXiN4Xs0XABws9TyRfTtM2RRNJ6k0YOIdJh_Fnoj9PM0Uh1imLmITPYsN2PONze_IAn_dPtUJoS7KvDP9SVptNGYyUVqxXiekCsT_PLk0vNJ-7gPCBmhXIj0LjcinbuyHxk7rUdyvL4yZ32sU6LFG1EBMVdM7tmjVuw8jehzBXpZL7RkbpJb-Av7I4le4ADmYnY-WWsKWbSY6sVF9wWb4LOXLYgTjhdY9wZUNuITt1ikwtRtb76LnfKV1iA4tm2LVfSIfb-YcGvokrfNj96VmQOcq0K6KrzVnE-WfSwzkJoUyTIRBevQTXDx-QqPOAbRvfSTCsfYcMadJGxjxX7o_gEYGEN9LCQNMKuAsXd60n8x4G-qds5eBqa9WOVgOVFgSWMiPrIkjeSos_N1vQ60tEFvUNuECBZQZHJ2erFe3FKEbGgiD-sW0EHyoobt-pW4psCNaaGwxbs3f2JbJ2AKRNL8WvuxDVRzr7LE5V7py__xhVlZvIopcAcNz72H7HZGw2pdUKvfYdIk3ZpOAER5Xu5Dluzy2vR5JzlBgn3jqhSJu2EAglr-qr-Q7sBtAAsTvKvYMDZKZnvDMHjBvJpHjeQZrZ-AyZ1kTlDcyDXz3y0]--></g></svg>